<mxfile host="app.diagrams.net" modified="2020-10-21T20:12:42.048Z" agent="5.0 (Windows NT 10.0; Win64; x64) AppleWebKit/537.36 (KHTML, like Gecko) Chrome/86.0.4240.75 Safari/537.36" etag="2tTzQbqyToCH0ZIj0Udh" version="13.8.1" type="github">
  <diagram id="Z3yEBhc7wKIZmT2c-PWg" name="Page-1">
    <mxGraphModel dx="868" dy="450" grid="1" gridSize="10" guides="1" tooltips="1" connect="1" arrows="1" fold="1" page="1" pageScale="1" pageWidth="827" pageHeight="1169" math="0" shadow="0">
      <root>
        <mxCell id="0" />
        <mxCell id="1" parent="0" />
        <mxCell id="v_dqo2X1sqBnSjcoPTeL-1" value="" style="rounded=1;whiteSpace=wrap;html=1;" parent="1" vertex="1">
          <mxGeometry x="120" y="130" width="120" height="60" as="geometry" />
        </mxCell>
        <mxCell id="v_dqo2X1sqBnSjcoPTeL-6" value="" style="ellipse;whiteSpace=wrap;html=1;" parent="1" vertex="1">
          <mxGeometry x="200" y="60" width="80" height="40" as="geometry" />
        </mxCell>
        <mxCell id="v_dqo2X1sqBnSjcoPTeL-7" value="" style="ellipse;whiteSpace=wrap;html=1;" parent="1" vertex="1">
          <mxGeometry x="260" y="113" width="80" height="40" as="geometry" />
        </mxCell>
        <mxCell id="v_dqo2X1sqBnSjcoPTeL-8" value="Modalidad" style="text;html=1;strokeColor=none;fillColor=none;align=center;verticalAlign=middle;whiteSpace=wrap;rounded=0;" parent="1" vertex="1">
          <mxGeometry x="270" y="123" width="70" height="20" as="geometry" />
        </mxCell>
        <mxCell id="v_dqo2X1sqBnSjcoPTeL-10" value="" style="ellipse;whiteSpace=wrap;html=1;" parent="1" vertex="1">
          <mxGeometry x="70" y="60" width="80" height="40" as="geometry" />
        </mxCell>
        <mxCell id="v_dqo2X1sqBnSjcoPTeL-11" value="" style="ellipse;whiteSpace=wrap;html=1;" parent="1" vertex="1">
          <mxGeometry x="23" y="120" width="80" height="40" as="geometry" />
        </mxCell>
        <mxCell id="v_dqo2X1sqBnSjcoPTeL-12" value="" style="ellipse;whiteSpace=wrap;html=1;" parent="1" vertex="1">
          <mxGeometry x="24" y="170" width="80" height="40" as="geometry" />
        </mxCell>
        <mxCell id="v_dqo2X1sqBnSjcoPTeL-13" value="" style="ellipse;whiteSpace=wrap;html=1;" parent="1" vertex="1">
          <mxGeometry x="260" y="170" width="80" height="40" as="geometry" />
        </mxCell>
        <mxCell id="v_dqo2X1sqBnSjcoPTeL-14" value="Duración" style="text;html=1;strokeColor=none;fillColor=none;align=center;verticalAlign=middle;whiteSpace=wrap;rounded=0;" parent="1" vertex="1">
          <mxGeometry x="44" y="180" width="40" height="20" as="geometry" />
        </mxCell>
        <mxCell id="v_dqo2X1sqBnSjcoPTeL-17" value="Área" style="text;html=1;strokeColor=none;fillColor=none;align=center;verticalAlign=middle;whiteSpace=wrap;rounded=0;" parent="1" vertex="1">
          <mxGeometry x="44" y="130" width="40" height="20" as="geometry" />
        </mxCell>
        <mxCell id="v_dqo2X1sqBnSjcoPTeL-18" value="Nombre" style="text;html=1;strokeColor=none;fillColor=none;align=center;verticalAlign=middle;whiteSpace=wrap;rounded=0;" parent="1" vertex="1">
          <mxGeometry x="90" y="70" width="40" height="20" as="geometry" />
        </mxCell>
        <mxCell id="v_dqo2X1sqBnSjcoPTeL-19" value="Precio" style="text;html=1;strokeColor=none;fillColor=none;align=center;verticalAlign=middle;whiteSpace=wrap;rounded=0;" parent="1" vertex="1">
          <mxGeometry x="280" y="180" width="40" height="20" as="geometry" />
        </mxCell>
        <mxCell id="v_dqo2X1sqBnSjcoPTeL-20" value="Código" style="text;html=1;strokeColor=none;fillColor=none;align=center;verticalAlign=middle;whiteSpace=wrap;rounded=0;strokeWidth=3;fontStyle=5" parent="1" vertex="1">
          <mxGeometry x="220" y="70" width="40" height="20" as="geometry" />
        </mxCell>
        <mxCell id="v_dqo2X1sqBnSjcoPTeL-21" value="CURSO" style="text;html=1;strokeColor=none;fillColor=none;align=center;verticalAlign=middle;whiteSpace=wrap;rounded=0;" parent="1" vertex="1">
          <mxGeometry x="160" y="150" width="40" height="20" as="geometry" />
        </mxCell>
        <mxCell id="v_dqo2X1sqBnSjcoPTeL-22" value="" style="rounded=1;whiteSpace=wrap;html=1;" parent="1" vertex="1">
          <mxGeometry x="580" y="120" width="120" height="60" as="geometry" />
        </mxCell>
        <mxCell id="v_dqo2X1sqBnSjcoPTeL-23" value="" style="ellipse;whiteSpace=wrap;html=1;" parent="1" vertex="1">
          <mxGeometry x="600" y="70" width="80" height="40" as="geometry" />
        </mxCell>
        <mxCell id="v_dqo2X1sqBnSjcoPTeL-24" value="" style="ellipse;whiteSpace=wrap;html=1;" parent="1" vertex="1">
          <mxGeometry x="720" y="110" width="80" height="40" as="geometry" />
        </mxCell>
        <mxCell id="v_dqo2X1sqBnSjcoPTeL-25" value="Correo" style="text;html=1;strokeColor=none;fillColor=none;align=center;verticalAlign=middle;whiteSpace=wrap;rounded=0;" parent="1" vertex="1">
          <mxGeometry x="725" y="120" width="70" height="20" as="geometry" />
        </mxCell>
        <mxCell id="v_dqo2X1sqBnSjcoPTeL-26" value="" style="ellipse;whiteSpace=wrap;html=1;" parent="1" vertex="1">
          <mxGeometry x="483" y="170" width="80" height="40" as="geometry" />
        </mxCell>
        <mxCell id="v_dqo2X1sqBnSjcoPTeL-27" value="" style="ellipse;whiteSpace=wrap;html=1;" parent="1" vertex="1">
          <mxGeometry x="483" y="110" width="80" height="40" as="geometry" />
        </mxCell>
        <mxCell id="v_dqo2X1sqBnSjcoPTeL-28" value="" style="ellipse;whiteSpace=wrap;html=1;" parent="1" vertex="1">
          <mxGeometry x="484" y="50" width="80" height="40" as="geometry" />
        </mxCell>
        <mxCell id="v_dqo2X1sqBnSjcoPTeL-29" value="" style="ellipse;whiteSpace=wrap;html=1;" parent="1" vertex="1">
          <mxGeometry x="720" y="170" width="80" height="40" as="geometry" />
        </mxCell>
        <mxCell id="v_dqo2X1sqBnSjcoPTeL-30" value="Teléfono" style="text;html=1;strokeColor=none;fillColor=none;align=center;verticalAlign=middle;whiteSpace=wrap;rounded=0;" parent="1" vertex="1">
          <mxGeometry x="504" y="60" width="40" height="20" as="geometry" />
        </mxCell>
        <mxCell id="v_dqo2X1sqBnSjcoPTeL-31" value="Apellido" style="text;html=1;strokeColor=none;fillColor=none;align=center;verticalAlign=middle;whiteSpace=wrap;rounded=0;" parent="1" vertex="1">
          <mxGeometry x="504" y="120" width="40" height="20" as="geometry" />
        </mxCell>
        <mxCell id="v_dqo2X1sqBnSjcoPTeL-32" value="Nombre" style="text;html=1;strokeColor=none;fillColor=none;align=center;verticalAlign=middle;whiteSpace=wrap;rounded=0;" parent="1" vertex="1">
          <mxGeometry x="503" y="180" width="40" height="20" as="geometry" />
        </mxCell>
        <mxCell id="v_dqo2X1sqBnSjcoPTeL-33" value="Departamento" style="text;html=1;strokeColor=none;fillColor=none;align=center;verticalAlign=middle;whiteSpace=wrap;rounded=0;" parent="1" vertex="1">
          <mxGeometry x="740" y="180" width="40" height="20" as="geometry" />
        </mxCell>
        <mxCell id="v_dqo2X1sqBnSjcoPTeL-34" value="fk_Código&lt;br&gt;&lt;hr&gt;" style="text;html=1;strokeColor=none;fillColor=none;align=center;verticalAlign=middle;whiteSpace=wrap;rounded=0;strokeWidth=3;fontStyle=5" parent="1" vertex="1">
          <mxGeometry x="620" y="80" width="40" height="20" as="geometry" />
        </mxCell>
        <mxCell id="v_dqo2X1sqBnSjcoPTeL-35" value="DOCENTE" style="text;html=1;strokeColor=none;fillColor=none;align=center;verticalAlign=middle;whiteSpace=wrap;rounded=0;" parent="1" vertex="1">
          <mxGeometry x="620" y="140" width="40" height="20" as="geometry" />
        </mxCell>
        <mxCell id="v_dqo2X1sqBnSjcoPTeL-36" value="" style="ellipse;whiteSpace=wrap;html=1;" parent="1" vertex="1">
          <mxGeometry x="720" y="50" width="80" height="40" as="geometry" />
        </mxCell>
        <mxCell id="v_dqo2X1sqBnSjcoPTeL-37" value="Horario" style="text;html=1;strokeColor=none;fillColor=none;align=center;verticalAlign=middle;whiteSpace=wrap;rounded=0;" parent="1" vertex="1">
          <mxGeometry x="740" y="60" width="40" height="20" as="geometry" />
        </mxCell>
        <mxCell id="v_dqo2X1sqBnSjcoPTeL-38" value="" style="ellipse;whiteSpace=wrap;html=1;" parent="1" vertex="1">
          <mxGeometry x="593" y="20" width="80" height="40" as="geometry" />
        </mxCell>
        <mxCell id="v_dqo2X1sqBnSjcoPTeL-39" value="DNI_prof" style="text;html=1;strokeColor=none;fillColor=none;align=center;verticalAlign=middle;whiteSpace=wrap;rounded=0;strokeWidth=3;fontStyle=5" parent="1" vertex="1">
          <mxGeometry x="613" y="30" width="40" height="20" as="geometry" />
        </mxCell>
        <mxCell id="jAlQPVcjih--SQIn9qe2-1" value="" style="rounded=1;whiteSpace=wrap;html=1;" vertex="1" parent="1">
          <mxGeometry x="360" y="450" width="120" height="60" as="geometry" />
        </mxCell>
        <mxCell id="jAlQPVcjih--SQIn9qe2-2" value="" style="ellipse;whiteSpace=wrap;html=1;" vertex="1" parent="1">
          <mxGeometry x="520" y="440" width="80" height="40" as="geometry" />
        </mxCell>
        <mxCell id="jAlQPVcjih--SQIn9qe2-5" value="" style="ellipse;whiteSpace=wrap;html=1;" vertex="1" parent="1">
          <mxGeometry x="242" y="500" width="80" height="40" as="geometry" />
        </mxCell>
        <mxCell id="jAlQPVcjih--SQIn9qe2-6" value="" style="ellipse;whiteSpace=wrap;html=1;" vertex="1" parent="1">
          <mxGeometry x="242" y="440" width="80" height="40" as="geometry" />
        </mxCell>
        <mxCell id="jAlQPVcjih--SQIn9qe2-7" value="" style="ellipse;whiteSpace=wrap;html=1;" vertex="1" parent="1">
          <mxGeometry x="520" y="500" width="80" height="40" as="geometry" />
        </mxCell>
        <mxCell id="jAlQPVcjih--SQIn9qe2-9" value="Teléfono" style="text;html=1;strokeColor=none;fillColor=none;align=center;verticalAlign=middle;whiteSpace=wrap;rounded=0;" vertex="1" parent="1">
          <mxGeometry x="540" y="510" width="40" height="20" as="geometry" />
        </mxCell>
        <mxCell id="jAlQPVcjih--SQIn9qe2-10" value="Apellido" style="text;html=1;strokeColor=none;fillColor=none;align=center;verticalAlign=middle;whiteSpace=wrap;rounded=0;" vertex="1" parent="1">
          <mxGeometry x="263" y="450" width="40" height="20" as="geometry" />
        </mxCell>
        <mxCell id="jAlQPVcjih--SQIn9qe2-11" value="Nombre" style="text;html=1;strokeColor=none;fillColor=none;align=center;verticalAlign=middle;whiteSpace=wrap;rounded=0;" vertex="1" parent="1">
          <mxGeometry x="262" y="510" width="40" height="20" as="geometry" />
        </mxCell>
        <mxCell id="jAlQPVcjih--SQIn9qe2-13" value="fk_Código&lt;br&gt;&lt;hr&gt;" style="text;html=1;strokeColor=none;fillColor=none;align=center;verticalAlign=middle;whiteSpace=wrap;rounded=0;strokeWidth=3;fontStyle=5" vertex="1" parent="1">
          <mxGeometry x="540" y="450" width="40" height="20" as="geometry" />
        </mxCell>
        <mxCell id="jAlQPVcjih--SQIn9qe2-14" value="ALUMNO" style="text;html=1;strokeColor=none;fillColor=none;align=center;verticalAlign=middle;whiteSpace=wrap;rounded=0;" vertex="1" parent="1">
          <mxGeometry x="402" y="470" width="40" height="20" as="geometry" />
        </mxCell>
        <mxCell id="jAlQPVcjih--SQIn9qe2-17" value="" style="ellipse;whiteSpace=wrap;html=1;" vertex="1" parent="1">
          <mxGeometry x="381" y="520" width="80" height="40" as="geometry" />
        </mxCell>
        <mxCell id="jAlQPVcjih--SQIn9qe2-18" value="DNI_alumno" style="text;html=1;strokeColor=none;fillColor=none;align=center;verticalAlign=middle;whiteSpace=wrap;rounded=0;strokeWidth=3;fontStyle=5" vertex="1" parent="1">
          <mxGeometry x="401" y="530" width="40" height="20" as="geometry" />
        </mxCell>
        <mxCell id="jAlQPVcjih--SQIn9qe2-27" value="Relationship" style="shape=rhombus;perimeter=rhombusPerimeter;whiteSpace=wrap;html=1;align=center;strokeWidth=3;" vertex="1" parent="1">
          <mxGeometry x="350" y="130" width="120" height="60" as="geometry" />
        </mxCell>
        <mxCell id="jAlQPVcjih--SQIn9qe2-29" value="Relationship" style="shape=rhombus;perimeter=rhombusPerimeter;whiteSpace=wrap;html=1;align=center;strokeWidth=3;" vertex="1" parent="1">
          <mxGeometry x="122" y="280" width="120" height="60" as="geometry" />
        </mxCell>
      </root>
    </mxGraphModel>
  </diagram>
</mxfile>
